<svg width="40" height="40" viewBox="0 0 40 40" fill="none" xmlns="http://www.w3.org/2000/svg">
<g clip-path="url(#clip0_273_964)">
<path d="M13.85 25.1C14.7 24.45 15.65 23.9375 16.7 23.5625C17.75 23.1875 18.85 23 20 23C21.15 23 22.25 23.1875 23.3 23.5625C24.35 23.9375 25.3 24.45 26.15 25.1C26.7333 24.4167 27.1875 23.6417 27.5125 22.775C27.8375 21.9083 28 20.9833 28 20C28 17.7833 27.2208 15.8958 25.6625 14.3375C24.1042 12.7792 22.2167 12 20 12C17.7833 12 15.8958 12.7792 14.3375 14.3375C12.7792 15.8958 12 17.7833 12 20C12 20.9833 12.1625 21.9083 12.4875 22.775C12.8125 23.6417 13.2667 24.4167 13.85 25.1ZM20 21C19.0167 21 18.1875 20.6625 17.5125 19.9875C16.8375 19.3125 16.5 18.4833 16.5 17.5C16.5 16.5167 16.8375 15.6875 17.5125 15.0125C18.1875 14.3375 19.0167 14 20 14C20.9833 14 21.8125 14.3375 22.4875 15.0125C23.1625 15.6875 23.5 16.5167 23.5 17.5C23.5 18.4833 23.1625 19.3125 22.4875 19.9875C21.8125 20.6625 20.9833 21 20 21ZM20 30C18.6167 30 17.3167 29.7375 16.1 29.2125C14.8833 28.6875 13.825 27.975 12.925 27.075C12.025 26.175 11.3125 25.1167 10.7875 23.9C10.2625 22.6833 10 21.3833 10 20C10 18.6167 10.2625 17.3167 10.7875 16.1C11.3125 14.8833 12.025 13.825 12.925 12.925C13.825 12.025 14.8833 11.3125 16.1 10.7875C17.3167 10.2625 18.6167 10 20 10C21.3833 10 22.6833 10.2625 23.9 10.7875C25.1167 11.3125 26.175 12.025 27.075 12.925C27.975 13.825 28.6875 14.8833 29.2125 16.1C29.7375 17.3167 30 18.6167 30 20C30 21.3833 29.7375 22.6833 29.2125 23.9C28.6875 25.1167 27.975 26.175 27.075 27.075C26.175 27.975 25.1167 28.6875 23.9 29.2125C22.6833 29.7375 21.3833 30 20 30Z" fill="#49454F"/>
</g>
<defs>
<clipPath id="clip0_273_964">
<rect width="40" height="40" rx="20" fill="white"/>
</clipPath>
</defs>
</svg>
